<svg width="121" height="56" xmlns="http://www.w3.org/2000/svg" xmlns:xlink="http://www.w3.org/1999/xlink" overflow="hidden"><defs><clipPath id="clip0"><path d="M1140 200 1261 200 1261 256 1140 256Z" fill-rule="evenodd" clip-rule="evenodd"/></clipPath></defs><g clip-path="url(#clip0)" transform="translate(-1140 -200)"><path d="M1217.48 222C1206.16 222 1194.84 222 1183.52 222 1180.79 210.811 1189.14 200 1200.5 200 1211.86 200 1220.21 210.811 1217.48 222Z" fill="#FFFFFF" fill-rule="evenodd"/><path d="M1143.03 207.894C1139.6 206.681 1140.82 201.566 1144.42 202.03 1157.28 203.676 1170.14 205.318 1183 206.965 1180.08 211.492 1179.19 215.679 1180 221 1167.68 216.63 1155.35 212.263 1143.03 207.894Z" fill="#FFFFFF" fill-rule="evenodd"/><path d="M1217 225C1206.33 225 1195.67 225 1185 225 1191.27 238.333 1210.73 238.333 1217 225Z" fill="#FFFFFF" fill-rule="evenodd"/><path d="M1257.5 202.03C1261.18 201.566 1262.43 206.681 1258.93 207.894 1246.31 212.263 1233.69 216.63 1221.07 221 1221.9 215.679 1220.99 211.492 1218 206.965 1231.16 205.318 1244.33 203.676 1257.5 202.03Z" fill="#FFFFFF" fill-rule="evenodd"/><path d="M1202.81 252.039C1204.11 256.192 1210.32 255.898 1211.19 251.648 1212.46 245.429 1213.73 239.218 1215 233 1206.96 240.635 1194.03 240.635 1186 233 1187.27 239.218 1188.54 245.429 1189.81 251.648 1190.68 255.898 1196.9 256.192 1198.19 252.039 1198.96 249.583 1199.73 247.123 1200.5 244.664 1201.27 247.123 1202.04 249.583 1202.81 252.039Z" fill="#FFFFFF" fill-rule="evenodd"/></g></svg>