<svg width="84" height="62" xmlns="http://www.w3.org/2000/svg" xmlns:xlink="http://www.w3.org/1999/xlink" overflow="hidden"><defs><clipPath id="clip0"><path d="M-96 203-12 203-12 265-96 265Z" fill-rule="evenodd" clip-rule="evenodd"/></clipPath></defs><g clip-path="url(#clip0)" transform="translate(96 -203)"><path d="M-50.4458 222C-48.1076 212.337-55.2614 203-64.9992 203-74.7371 203-81.8909 212.337-79.5549 222-69.8515 222-60.1481 222-50.4458 222Z" fill="#FFFFFF" fill-rule="evenodd"/><path d="M-50 233.265C-50 231.617-50 229.968-50 228.321-57.1812 238.953-72.9261 238.784-79.8777 228-83.7579 231.54-87.637 235.077-91.5185 238.615-94.0268 240.904-95.0374 243.225-94.9989 246.615-94.9989 251.161-94.9989 255.712-94.9989 260.26-94.9989 264.89-88.2257 265.39-87.545 260.81-86.8316 256.01-86.1148 251.209-85.4038 246.411-85.1497 244.707-84.4561 243.633-83.0026 242.703-81.006 241.422-79.0105 240.144-77.0103 238.863-71.433 238.863-65.8556 238.863-60.2747 238.863-56.1706 237.954-52.9827 236.219-50 233.265Z" fill="#FFFFFF" fill-rule="evenodd"/><path d="M-59 241.569C-58.3385 243.258-57.6771 244.949-57.0179 246.64-55.5171 250.48-50 249.367-50 245.228-50 242.484-50 239.743-50 237-52.7308 239.266-55.5975 240.72-59 241.569Z" fill="#FFFFFF" fill-rule="evenodd"/><path d="M-34.9953 215.951C-39.2355 217.967-43.4746 219.983-47.7113 222-46.8776 217.908-47.2679 214.464-49 210.676-43.9746 209.273-38.9514 207.873-33.9283 206.468-30.68 205.561-28.1985 205.953-25.3694 207.818-21.8209 210.155-18.2758 212.493-14.7308 214.831-10.8878 217.364-14.061 223.358-18.2458 221.474-22.3671 219.618-26.4895 217.763-30.6119 215.906-32.1777 215.201-33.4457 215.215-34.9953 215.951Z" fill="#FFFFFF" fill-rule="evenodd"/><path d="M-79 225C-73.5161 237-56.4839 237-51 225-60.3325 225-69.6663 225-79 225Z" fill="#FFFFFF" fill-rule="evenodd"/></g></svg>