<!DOCTYPE svg PUBLIC "-//W3C//DTD SVG 20010904//EN" "http://www.w3.org/TR/2001/REC-SVG-20010904/DTD/svg10.dtd">
<svg version="1.0" xmlns="http://www.w3.org/2000/svg" width="1600px" height="713px" viewBox="0 0 16000 7130" preserveAspectRatio="xMidYMid meet">
<g id="layer101" fill="#262626" stroke="none">
 <path d="M7137 7007 c15 -13 224 -169 463 -345 239 -177 548 -406 685 -508 245 -182 299 -218 314 -212 6 2 -19 122 -74 355 -3 14 -15 23 -37 28 -54 11 -186 54 -298 98 -213 83 -527 257 -824 455 -125 83 -235 152 -243 152 -9 0 -4 -9 14 -23z"/>
 <path d="M4926 7011 c-3 -5 169 -136 382 -292 213 -155 407 -299 432 -319 69 -56 491 -364 620 -453 106 -72 321 -230 613 -449 154 -116 170 -117 87 -8 -63 82 -163 277 -188 367 -11 37 -41 159 -68 271 l-48 202 -308 0 c-286 0 -313 2 -371 21 -64 21 -350 160 -377 183 -8 7 -91 59 -185 116 -93 57 -261 163 -373 237 -112 73 -205 133 -207 133 -2 0 -6 -4 -9 -9z"/>
 <path d="M5040 6759 c0 -7 57 -68 126 -137 139 -138 214 -232 214 -268 l0 -24 -590 0 c-377 0 -590 -4 -590 -10 0 -9 224 -914 236 -951 8 -27 -23 -49 -69 -49 -77 0 -438 141 -614 241 -58 32 -73 35 -72 17 0 -7 243 -191 540 -408 580 -424 1376 -1010 1746 -1284 203 -152 304 -224 508 -368 33 -23 227 -166 430 -318 314 -235 824 -610 1040 -766 33 -24 88 -64 123 -89 34 -26 68 -45 75 -42 6 2 -22 40 -63 84 -41 45 -115 133 -163 197 -231 304 -373 570 -432 808 l-27 107 -382 3 -381 3 -55 26 c-88 42 -796 582 -808 617 -3 9 121 12 597 12 474 0 601 3 601 13 0 6 -36 162 -81 345 l-82 332 -681 0 -681 0 -96 385 -96 385 643 0 c511 0 642 3 638 13 -5 11 -322 244 -409 300 -22 14 -142 101 -267 194 -733 543 -869 643 -873 643 -3 0 -5 -5 -5 -11z"/>
 <path d="M12560 6353 c-80 -8 -253 -45 -327 -69 -150 -49 -262 -113 -395 -226 -106 -90 -141 -102 -271 -95 -73 4 -131 14 -207 37 -193 59 -448 169 -663 287 -113 62 -160 77 -123 40 16 -16 -12 -17 -492 -17 l-510 0 -31 -117 c-18 -65 -60 -219 -95 -343 -35 -124 -96 -348 -136 -497 l-74 -273 -207 0 -207 0 -54 220 c-62 245 -62 255 5 252 20 -1 71 -15 114 -32 85 -33 93 -34 93 -21 0 9 -335 259 -498 372 -132 91 -465 334 -536 391 l-60 48 -153 0 c-126 0 -153 -3 -153 -14 0 -8 93 -387 206 -842 205 -827 205 -827 187 -853 -29 -38 -65 -46 -137 -28 -59 14 -276 109 -515 223 -63 30 -117 52 -120 48 -7 -7 -12 -3 189 -147 232 -165 599 -436 675 -497 89 -72 812 -603 844 -620 29 -15 197 -139 261 -191 25 -20 227 -170 448 -333 451 -330 398 -304 570 -285 460 49 764 247 869 564 24 72 27 95 27 225 0 103 -5 170 -18 229 -103 479 -329 783 -740 996 -75 39 -136 75 -136 82 0 12 58 228 152 558 58 209 244 832 256 858 6 15 35 -3 207 -129 110 -81 229 -166 265 -190 66 -43 249 -178 491 -360 127 -97 641 -474 1530 -1124 222 -162 539 -396 704 -520 166 -124 356 -263 423 -310 129 -90 493 -358 894 -656 468 -349 700 -514 710 -507 7 4 -2 18 -23 36 -300 263 -631 595 -746 752 -45 60 -103 150 -130 200 -54 102 -51 76 -38 405 6 159 4 207 -14 345 -45 345 -141 665 -283 950 -151 301 -377 583 -604 753 -413 310 -772 435 -1232 430 -86 0 -173 -3 -192 -5z m482 -714 c244 -49 471 -253 624 -557 85 -171 215 -621 251 -873 17 -118 17 -121 -2 -135 -10 -8 -28 -14 -39 -14 -35 0 -118 45 -181 97 -68 56 -735 559 -778 586 -87 55 -334 256 -384 313 -86 98 -88 103 -75 208 18 148 96 281 194 332 93 49 267 68 390 43z m-3352 -1292 c198 -59 334 -198 398 -407 64 -212 25 -346 -123 -420 l-69 -35 -342 -3 -342 -3 -35 153 c-69 294 -170 713 -175 726 -8 22 612 11 688 -11z"/>
 <path d="M11512 5473 c-32 -61 -46 -402 -23 -573 37 -274 142 -653 246 -889 173 -393 456 -732 812 -974 322 -219 678 -327 1078 -327 326 0 573 66 795 214 97 65 250 213 250 242 0 14 -123 109 -380 291 -154 109 -516 375 -715 523 -107 81 -145 103 -145 84 0 -3 32 -36 72 -73 153 -141 288 -335 288 -413 0 -35 -28 -63 -93 -94 -80 -37 -149 -47 -272 -41 -128 7 -198 26 -316 88 -190 100 -342 296 -456 589 -59 148 -68 180 -133 455 -41 176 -53 213 -74 231 -14 12 -213 160 -443 330 -230 169 -432 318 -450 331 -30 23 -32 23 -41 6z"/>
 <path d="M4594 4737 c-4 -10 428 -1783 472 -1939 5 -17 66 -18 1095 -18 865 0 1089 3 1088 13 0 6 -84 73 -186 147 -103 74 -209 153 -237 176 -28 22 -156 118 -285 212 l-234 172 -238 0 -237 0 -19 73 c-11 39 -35 135 -54 211 l-34 139 -155 117 c-147 111 -869 641 -938 689 -26 18 -33 20 -38 8z"/>
 <path d="M8150 3964 c1 -11 67 -284 149 -609 l147 -590 415 -6 c400 -6 418 -7 537 -32 240 -53 383 -107 605 -231 84 -46 179 -97 212 -113 33 -16 129 -69 212 -116 84 -48 158 -87 164 -87 27 0 -6 30 -122 112 -68 48 -142 101 -164 118 -22 16 -255 188 -519 382 -263 194 -560 414 -660 489 -211 158 -364 269 -370 269 -3 0 -134 95 -292 211 -158 116 -293 213 -301 216 -8 3 -13 -2 -13 -13z"/>
 <path d="M10676 2141 c-4 -5 153 -125 346 -267 194 -142 390 -286 435 -321 111 -86 126 -85 69 1 -40 61 -68 134 -91 239 l-17 77 -124 0 c-115 0 -129 2 -187 28 -68 31 -231 127 -344 204 -78 52 -79 52 -87 39z"/>
 <path d="M11830 2141 c0 -11 584 -441 599 -441 14 0 14 0 -8 89 l-17 74 -80 27 c-107 36 -258 114 -379 194 -99 66 -115 74 -115 57z"/>
 <path d="M10727 2034 c-4 -4 26 -42 65 -83 l73 -76 -242 -3 c-134 -1 -243 -6 -243 -10 0 -4 21 -93 47 -199 26 -106 44 -195 40 -199 -11 -12 -115 24 -195 67 -76 40 -92 46 -92 29 0 -10 303 -241 440 -335 113 -77 779 -566 844 -619 94 -76 493 -366 505 -366 6 0 11 2 11 5 0 3 -34 47 -75 98 -108 134 -159 229 -201 374 -2 10 -41 13 -147 13 -117 0 -149 3 -178 18 -19 10 -99 67 -177 127 l-143 110 236 3 c178 2 235 5 235 15 0 6 -15 68 -33 137 l-34 125 -271 3 -271 2 -10 38 c-29 111 -61 242 -61 251 0 8 81 11 255 11 150 0 255 4 255 9 0 9 -589 447 -614 457 -7 3 -15 1 -19 -2z"/>
 <path d="M650 1981 c0 -5 91 -76 203 -157 111 -82 287 -213 391 -291 103 -79 194 -143 201 -143 8 0 12 18 11 59 -2 101 50 141 184 142 112 1 200 -54 215 -135 12 -62 -31 -105 -155 -154 -41 -16 -75 -33 -77 -38 -2 -5 21 -25 50 -44 28 -19 100 -70 160 -113 121 -89 120 -89 217 -34 75 43 147 112 178 172 22 43 26 62 26 135 -2 226 -156 405 -409 473 -95 26 -248 38 -350 27 -134 -14 -219 -43 -310 -104 -35 -24 -37 -24 -88 -9 -66 19 -224 98 -337 169 -87 53 -110 63 -110 45z"/>
 <path d="M13380 1981 c0 -4 26 -26 58 -49 31 -22 208 -153 392 -291 184 -138 341 -251 348 -251 8 0 12 19 12 63 0 51 4 68 21 86 62 66 232 72 320 10 32 -22 59 -76 59 -117 0 -51 -76 -109 -187 -142 -24 -7 -43 -19 -43 -26 0 -7 35 -36 78 -65 42 -29 112 -78 154 -111 42 -32 84 -58 94 -58 64 0 237 140 274 222 37 82 20 250 -35 344 -115 196 -307 286 -610 286 -97 -1 -149 -6 -207 -21 -82 -21 -166 -60 -187 -85 -20 -23 -78 -20 -149 9 -54 22 -293 154 -347 191 -22 16 -45 18 -45 5z"/>
 <path d="M3535 1920 c-4 -6 19 -40 49 -77 l56 -67 0 -315 c0 -261 -2 -312 -13 -296 -16 25 -184 374 -267 558 l-63 137 -200 0 -200 0 6 -182 c4 -99 7 -209 7 -242 l1 -61 77 -56 c116 -86 271 -189 282 -189 6 0 10 19 11 43 l0 42 39 -79 c44 -88 50 -93 305 -282 526 -388 585 -429 585 -408 0 3 -42 52 -93 110 -146 163 -144 154 -150 432 -3 127 -4 232 -2 232 1 0 80 -178 175 -395 l173 -395 189 0 c111 0 188 4 188 9 0 6 -27 66 -59 135 -33 69 -63 136 -67 148 -8 27 -94 215 -184 403 -34 72 -79 166 -100 210 l-37 80 -279 204 c-153 113 -311 229 -351 258 -41 30 -75 49 -78 43z"/>
 <path d="M7020 1924 c0 -3 27 -36 60 -75 33 -38 69 -88 81 -110 11 -23 63 -187 114 -364 51 -178 96 -333 100 -346 9 -30 -71 97 -322 514 l-197 327 -128 0 c-106 0 -128 -2 -128 -15 0 -21 -90 -858 -93 -869 -2 -5 -9 20 -15 55 -7 35 -50 235 -95 444 l-82 380 -198 3 c-128 1 -197 -1 -197 -8 0 -5 45 -188 100 -406 55 -219 100 -398 100 -400 0 -2 136 -103 303 -225 166 -123 374 -277 462 -344 227 -171 264 -197 276 -193 6 2 -31 44 -81 93 -169 165 -257 291 -266 383 -2 26 6 169 19 317 l23 270 32 -60 c17 -33 136 -242 266 -465 l234 -405 251 -3 251 -2 -1 22 c0 13 -60 257 -132 542 l-132 519 -290 214 c-258 190 -315 227 -315 207z"/>
 <path d="M9240 1922 c0 -6 23 -37 51 -69 80 -91 95 -126 165 -370 36 -125 81 -279 100 -342 19 -63 33 -116 31 -118 -2 -2 -26 32 -53 76 -112 181 -391 651 -419 704 -17 34 -38 60 -50 63 -11 3 -72 3 -135 2 l-115 -3 -46 -428 c-25 -235 -48 -429 -51 -432 -5 -5 -8 7 -114 499 -41 192 -77 353 -80 357 -3 5 -90 9 -195 9 -189 0 -189 0 -189 -22 0 -13 44 -197 97 -410 l97 -387 400 -296 c221 -163 451 -334 511 -380 99 -76 135 -97 135 -79 0 3 -45 49 -100 101 -110 104 -230 270 -250 344 -6 23 -9 62 -5 88 3 25 14 149 25 275 10 125 21 230 23 233 3 2 21 -27 42 -64 21 -37 139 -245 264 -460 l226 -393 248 0 247 0 0 25 c0 26 -243 1004 -259 1040 -8 18 -555 429 -588 442 -7 3 -13 0 -13 -5z"/>
 <path d="M7230 1857 c0 -14 581 -447 600 -447 20 0 9 19 -47 82 -149 164 -197 232 -229 326 l-19 52 -152 0 c-122 0 -153 -3 -153 -13z"/>
 <path d="M9440 1858 c1 -12 565 -433 596 -445 30 -11 11 22 -45 83 -132 141 -198 238 -230 337 l-13 37 -154 0 c-117 0 -154 -3 -154 -12z"/>
 <path d="M3732 1848 c4 -11 398 -307 550 -414 74 -52 57 -12 -43 99 -85 95 -109 129 -152 220 l-51 107 -154 0 c-118 0 -153 -3 -150 -12z"/>
 <path d="M4880 1853 c0 -5 13 -56 28 -115 l27 -108 260 -191 c276 -203 391 -282 406 -277 4 2 -26 41 -67 88 -141 158 -163 204 -225 468 l-34 142 -197 0 c-109 0 -198 -3 -198 -7z"/>
 <path d="M12010 1853 c0 -5 37 -157 82 -340 61 -247 80 -335 71 -344 -15 -15 -105 12 -206 62 -75 38 -105 46 -89 24 4 -6 50 -41 102 -77 93 -65 412 -300 820 -605 l204 -153 55 6 c251 27 380 137 381 324 0 150 -61 302 -158 391 -48 45 -160 120 -195 132 -6 2 102 390 158 568 6 19 1 19 -211 17 l-217 -3 -66 -242 -66 -243 -76 0 -77 0 -16 68 c-9 37 -19 75 -23 86 -4 16 -1 18 23 13 16 -3 40 -8 53 -13 55 -17 5 28 -198 179 l-213 157 -69 0 c-38 0 -69 -3 -69 -7z m895 -809 c49 -25 99 -95 115 -162 9 -41 9 -56 -4 -85 -24 -60 -60 -72 -210 -72 l-130 0 -36 145 c-20 80 -40 158 -44 173 l-7 29 138 -4 c116 -2 144 -6 178 -24z"/>
 <path d="M4770 1693 c0 -5 38 -53 85 -108 121 -141 141 -188 220 -510 l67 -270 185 -135 c103 -74 260 -190 350 -258 90 -67 168 -122 173 -122 19 0 9 16 -48 80 -84 93 -188 235 -217 295 -14 28 -50 150 -81 271 -30 120 -60 236 -65 256 -9 33 -37 57 -323 267 -307 226 -346 252 -346 234z"/>
 <path d="M1075 1600 c-9 -15 -10 -158 -1 -197 l8 -33 77 0 c97 0 206 -27 301 -75 40 -20 75 -34 78 -30 8 8 12 4 -220 174 -114 84 -210 156 -213 161 -8 13 -22 13 -30 0z"/>
 <path d="M13794 1574 c-7 -39 0 -177 11 -194 3 -5 41 -10 84 -10 96 0 213 -29 304 -75 73 -37 101 -45 77 -21 -25 24 -453 336 -461 336 -5 0 -11 -16 -15 -36z"/>
 <path d="M2581 1563 c2 -6 59 -71 125 -144 67 -74 142 -159 167 -189 l45 -56 6 -324 c4 -179 9 -346 12 -373 l6 -47 190 0 191 0 -6 113 c-4 61 -12 206 -18 320 l-12 208 -96 67 c-53 36 -205 146 -339 245 -237 174 -279 201 -271 180z"/>
 <path d="M1467 1204 c-96 -49 -161 -106 -192 -169 -16 -32 -20 -60 -20 -140 0 -93 2 -105 33 -167 63 -128 209 -236 392 -289 106 -30 347 -38 440 -14 78 20 112 37 168 83 46 38 92 107 92 138 -1 11 -21 34 -49 54 -27 19 -118 87 -203 151 -84 63 -161 118 -172 122 -18 7 -18 6 -1 -19 45 -68 56 -96 57 -132 1 -55 -17 -81 -69 -104 -124 -55 -329 50 -292 149 12 33 80 78 165 109 41 15 77 30 80 35 7 12 -313 240 -334 238 -4 0 -47 -20 -95 -45z"/>
 <path d="M14202 1204 c-100 -50 -161 -105 -195 -174 -18 -37 -22 -62 -22 -135 0 -80 4 -98 32 -157 68 -145 207 -247 413 -304 50 -14 103 -18 230 -19 148 0 172 2 233 23 37 13 90 42 118 64 48 38 109 118 109 144 0 6 -62 57 -137 113 -76 56 -174 129 -218 162 -81 63 -106 65 -62 7 103 -138 13 -256 -166 -218 -98 20 -169 92 -153 155 8 32 76 76 173 113 40 15 73 32 73 37 0 6 -52 46 -115 90 -64 44 -135 95 -160 113 -24 17 -48 32 -53 32 -6 0 -51 -21 -100 -46z"/>
 <path d="M10540 1223 c0 -5 43 -185 97 -400 l98 -393 442 0 c262 0 443 4 443 9 0 5 -48 46 -107 90 -60 44 -144 107 -187 141 l-79 60 -97 0 -97 0 -18 80 c-10 45 -23 87 -29 94 -24 30 -442 326 -460 326 -3 0 -6 -3 -6 -7z"/>
 <path d="M5901 1120 c127 -136 195 -218 245 -291 41 -59 50 -85 88 -235 l42 -169 253 -3 252 -2 -3 56 -3 57 -400 294 c-428 315 -526 383 -545 383 -7 0 25 -41 71 -90z"/>
 <path d="M8140 1093 c119 -124 215 -244 250 -310 11 -22 34 -96 51 -164 16 -68 34 -141 40 -161 l10 -38 248 0 248 0 7 51 c4 28 6 52 4 54 -63 48 -876 640 -905 658 -24 15 -48 27 -54 27 -6 0 40 -53 101 -117z"/>
 <path d="M3410 962 c0 -18 59 -155 147 -344 l88 -188 169 0 169 0 -7 67 c-4 37 -8 68 -9 69 -27 20 -536 393 -544 398 -7 4 -13 3 -13 -2z"/>
 <path d="M4900 923 c0 -5 48 -62 106 -128 120 -137 167 -203 196 -278 11 -28 24 -62 29 -74 8 -23 11 -23 184 -23 108 0 175 4 175 10 0 5 -69 60 -152 122 -500 370 -539 397 -538 371z"/>
 <path d="M12242 913 c3 -10 31 -125 64 -255 l59 -238 165 0 c246 0 299 -16 569 -167 63 -35 121 -61 129 -58 18 7 45 -15 -338 265 -168 123 -323 238 -345 256 -81 65 -287 214 -297 214 -6 0 -8 -8 -6 -17z"/>
 <path d="M2170 870 c0 -6 28 -31 63 -58 280 -210 351 -262 363 -262 8 0 14 2 14 5 0 3 -36 47 -80 98 -70 80 -114 149 -134 210 -5 15 -19 17 -116 17 -67 0 -110 -4 -110 -10z"/>
 <path d="M14896 872 c-4 -7 343 -271 411 -313 48 -29 32 4 -47 98 -75 89 -130 178 -130 211 0 9 -30 12 -114 12 -63 0 -117 -4 -120 -8z"/>
 </g>
<g id="layer102" fill="#6ddef9" stroke="none">
 <path d="M1680 6695 c0 -4 50 -59 111 -123 120 -125 169 -192 169 -229 l0 -23 -809 0 c-446 0 -812 -4 -815 -8 -3 -5 22 -114 55 -242 52 -203 64 -238 92 -271 42 -49 624 -653 948 -983 140 -144 393 -405 562 -581 169 -176 400 -416 514 -532 l206 -213 -702 0 c-451 0 -701 -3 -699 -10 2 -5 221 -170 488 -367 267 -197 574 -424 681 -505 108 -80 245 -180 305 -221 60 -40 223 -158 362 -260 234 -173 279 -202 270 -178 -1 5 -82 83 -178 173 -96 91 -214 206 -262 255 -174 182 -259 328 -221 382 14 21 20 21 659 21 508 0 644 3 644 13 0 6 -25 116 -56 244 l-56 231 -196 199 c-109 109 -253 259 -322 333 -185 199 -827 868 -955 995 -62 61 -170 174 -241 251 -71 78 -221 237 -333 353 l-203 211 732 0 c569 0 731 3 728 12 -5 14 -261 204 -408 303 -52 36 -183 130 -290 209 -489 363 -755 558 -767 563 -7 3 -13 2 -13 -2z"/>
 <path d="M2471 6308 c0 -12 408 -316 467 -348 37 -20 468 -335 507 -370 17 -15 132 -102 258 -194 289 -211 305 -216 149 -47 -109 118 -265 297 -358 411 -126 155 -209 308 -260 480 l-22 75 -371 3 c-294 2 -371 0 -370 -10z"/>
 <path d="M380 3991 c0 -9 62 -81 290 -335 331 -370 429 -525 500 -788 l23 -88 423 0 c244 0 424 4 424 9 0 7 -389 296 -958 712 -37 27 -206 150 -375 274 -169 124 -312 225 -318 225 -5 0 -9 -4 -9 -9z"/>
 </g>

</svg>