<svg width="155" height="156" xmlns="http://www.w3.org/2000/svg" xmlns:xlink="http://www.w3.org/1999/xlink" overflow="hidden"><defs><clipPath id="clip0"><path d="M91 104 246 104 246 260 91 260Z" fill-rule="evenodd" clip-rule="evenodd"/></clipPath><linearGradient x1="169" y1="259" x2="169" y2="105" gradientUnits="userSpaceOnUse" spreadMethod="reflect" id="fill1"><stop offset="0" stop-color="#323A95"/><stop offset="0.0208333" stop-color="#313B95"/><stop offset="0.0416667" stop-color="#313C95"/><stop offset="0.0625" stop-color="#313D95"/><stop offset="0.0833333" stop-color="#313F95"/><stop offset="0.104167" stop-color="#314095"/><stop offset="0.125" stop-color="#314195"/><stop offset="0.145833" stop-color="#304295"/><stop offset="0.166667" stop-color="#304395"/><stop offset="0.1875" stop-color="#2F4495"/><stop offset="0.208333" stop-color="#2F4695"/><stop offset="0.229167" stop-color="#2E4795"/><stop offset="0.25" stop-color="#2E4895"/><stop offset="0.270833" stop-color="#2D4995"/><stop offset="0.291667" stop-color="#2D4A95"/><stop offset="0.3125" stop-color="#2C4B96"/><stop offset="0.333333" stop-color="#2B4C96"/><stop offset="0.354167" stop-color="#2B4D96"/><stop offset="0.375" stop-color="#2A4D96"/><stop offset="0.395833" stop-color="#294E96"/><stop offset="0.416667" stop-color="#284F96"/><stop offset="0.4375" stop-color="#275096"/><stop offset="0.458333" stop-color="#265196"/><stop offset="0.479167" stop-color="#255196"/><stop offset="0.5" stop-color="#245296"/><stop offset="0.520833" stop-color="#235396"/><stop offset="0.541667" stop-color="#225496"/><stop offset="0.5625" stop-color="#215496"/><stop offset="0.583333" stop-color="#205596"/><stop offset="0.604167" stop-color="#1E5696"/><stop offset="0.625" stop-color="#1D5696"/><stop offset="0.645833" stop-color="#1C5796"/><stop offset="0.666667" stop-color="#1B5796"/><stop offset="0.6875" stop-color="#195896"/><stop offset="0.708333" stop-color="#185896"/><stop offset="0.729167" stop-color="#165996"/><stop offset="0.75" stop-color="#155996"/><stop offset="0.770833" stop-color="#135996"/><stop offset="0.791667" stop-color="#125A96"/><stop offset="0.8125" stop-color="#105A96"/><stop offset="0.833333" stop-color="#0F5A96"/><stop offset="0.854167" stop-color="#0D5B96"/><stop offset="0.875" stop-color="#0B5B96"/><stop offset="0.895833" stop-color="#0A5B96"/><stop offset="0.916667" stop-color="#085B96"/><stop offset="0.9375" stop-color="#065B96"/><stop offset="0.958333" stop-color="#045B96"/><stop offset="0.979167" stop-color="#025B96"/><stop offset="1" stop-color="#015C97"/></linearGradient></defs><g clip-path="url(#clip0)" transform="translate(-91 -104)"><path d="M169.002 105C126.542 105 92 139.544 92 182 92 224.457 126.544 259 169.002 259 211.46 259 246 224.457 246 182 246 139.544 211.46 105 169.002 105ZM183.656 213.758C196.683 208.093 205.794 195.113 205.794 180.004 205.794 159.685 189.325 143.212 169.002 143.212 148.679 143.212 132.208 159.685 132.208 180.004 132.208 195.113 141.319 208.093 154.345 213.758 138.38 216.059 125.706 222.029 120.436 229.64 108.377 217.353 100.924 200.535 100.924 182 100.924 144.465 131.463 113.924 169 113.924 206.537 113.924 237.076 144.465 237.076 182 237.076 200.535 229.621 217.355 217.564 229.64 212.296 222.031 199.62 216.059 183.656 213.758Z" fill="url(#fill1)" fill-rule="evenodd"/></g></svg>