<svg xmlns="http://www.w3.org/2000/svg" xmlns:xlink="http://www.w3.org/1999/xlink" version="1.1" x="0px" y="0px" viewBox="0 0 100 125" enable-background="new 0 0 100 100" xml:space="preserve"><g><path d="M62.669,35.65c2.032-8.229-4.193-16.18-12.669-16.18c-8.473,0-14.699,7.951-12.666,16.18   C45.779,35.65,54.224,35.65,62.669,35.65z"/><path d="M38.134,37.947c4.647,10.16,19.085,10.16,23.735,0C53.957,37.947,46.047,37.947,38.134,37.947z"/><path d="M71.555,67.84c2.721,0,5.441,0,8.163,0c-4.675,2.969-9.353,5.938-14.028,8.905c0.474-1.822,0.945-3.646,1.421-5.467   C67.635,69.253,69.46,67.84,71.555,67.84z"/><path d="M28.449,67.84c-2.721,0-5.443,0-8.166,0c4.676,2.969,9.354,5.938,14.029,8.905c-0.473-1.822-0.946-3.646-1.419-5.467   C32.368,69.253,30.541,67.84,28.449,67.84z"/><path d="M59.294,56.165c3.122,0,6.242,0,9.363,0c0.753-2.899,1.505-5.798,2.257-8.695c1.002-4.479-2.017-8.864-6.56-9.522   c-5,13.224-23.706,13.224-28.706,0c-4.543,0.658-7.564,5.043-6.559,9.522c0.751,2.897,1.502,5.796,2.255,8.695   c3.122,0,6.242,0,9.362,0c-0.396-1.532-0.795-3.064-1.191-4.594c-0.204-0.786,0.039-1.196,0.825-1.399   c0.784-0.203,1.194,0.037,1.398,0.822c0.447,1.725,0.894,3.446,1.341,5.171c4.613,0,9.228,0,13.842,0   c0.446-1.725,0.895-3.446,1.342-5.171c0.203-0.785,0.614-1.025,1.399-0.822c0.786,0.203,1.025,0.613,0.822,1.399   C60.089,53.101,59.69,54.633,59.294,56.165z"/><path d="M56.529,58.461H43.473C45.643,64.626,54.362,64.626,56.529,58.461z"/><path d="M41.074,58.461c2.373,9.227,15.479,9.227,17.854,0h9.133l-4.744,18.284c-1.215,4.686-7.688,5.145-9.554,0.678L50,68.409   l-3.762,9.014c-1.865,4.467-8.338,4.008-9.553-0.678l-4.744-18.284H41.074z"/></g><text x="0" y="115" fill="#000000" font-size="5px" font-weight="bold" font-family="'Helvetica Neue', Helvetica, Arial-Unicode, Arial, Sans-serif">Created by ummmpa</text><text x="0" y="120" fill="#000000" font-size="5px" font-weight="bold" font-family="'Helvetica Neue', Helvetica, Arial-Unicode, Arial, Sans-serif">from the Noun Project</text></svg>