<svg xmlns="http://www.w3.org/2000/svg" xmlns:xlink="http://www.w3.org/1999/xlink" version="1.1" x="0px" y="0px" viewBox="0 0 100 125" enable-background="new 0 0 100 100" xml:space="preserve"><g><path d="M52.969,40.024c2.035-8.229-4.191-16.181-12.666-16.181s-14.701,7.952-12.668,16.181   C36.08,40.024,44.525,40.024,52.969,40.024z"/><g><path d="M53.028,49.721c0-1.417,0-2.835,0-4.252c-6.161,9.145-19.669,8.999-25.633-0.276c-3.329,3.045-6.657,6.087-9.987,9.13    c-2.152,1.969-3.019,3.965-2.986,6.881c0,3.91,0,7.824,0,11.736c0,3.982,5.811,4.412,6.395,0.473    c0.612-4.129,1.227-8.258,1.837-12.385c0.218-1.465,0.813-2.389,2.06-3.189c1.713-1.102,3.425-2.201,5.141-3.303    c4.785,0,9.57,0,14.358,0C47.734,53.754,50.469,52.262,53.028,49.721z"/><path d="M45.082,56.689c0.584,1.441,1.168,2.883,1.75,4.326c1.325,3.275,6.196,2.326,6.196-1.205c0-2.34,0-4.678,0-7.018    C50.617,54.725,48.086,55.965,45.082,56.689z"/></g><g><path d="M66.337,34.888c-3.672,1.712-7.343,3.424-11.012,5.137c0.722-3.475,0.384-6.4-1.116-9.617    c4.352-1.191,8.702-2.38,13.052-3.573c2.813-0.771,4.962-0.438,7.412,1.146c3.073,1.985,6.143,3.97,9.213,5.956    c3.328,2.151,0.58,7.241-3.044,5.641c-3.569-1.576-7.139-3.151-10.709-4.728C68.777,34.251,67.679,34.263,66.337,34.888z"/><path d="M28.436,42.32c4.648,10.16,19.084,10.16,23.732,0C44.258,42.32,36.347,42.32,28.436,42.32z"/></g></g><text x="0" y="115" fill="#000000" font-size="5px" font-weight="bold" font-family="'Helvetica Neue', Helvetica, Arial-Unicode, Arial, Sans-serif">Created by ummmpa</text><text x="0" y="120" fill="#000000" font-size="5px" font-weight="bold" font-family="'Helvetica Neue', Helvetica, Arial-Unicode, Arial, Sans-serif">from the Noun Project</text></svg>