<svg xmlns="http://www.w3.org/2000/svg" xmlns:xlink="http://www.w3.org/1999/xlink" version="1.1" x="0px" y="0px" viewBox="0 0 100 125" enable-background="new 0 0 100 100" xml:space="preserve"><g><path d="M62.667,45.688c-8.444,0-16.89,0-25.335,0C35.3,37.459,41.525,29.508,50,29.508S64.7,37.459,62.667,45.688z"/><path d="M6.805,34.948c-2.594-0.919-1.672-4.794,1.059-4.443c9.746,1.247,19.492,2.491,29.238,3.739   c-2.21,3.43-2.887,6.602-2.27,10.633C25.489,41.566,16.146,38.258,6.805,34.948z"/><path d="M61.866,47.984c-7.911,0-15.821,0-23.732,0C42.781,58.145,57.218,58.145,61.866,47.984z"/><path d="M92.138,30.505c2.729-0.351,3.651,3.524,1.058,4.443c-9.342,3.31-18.685,6.618-28.027,9.929   c0.617-4.031-0.06-7.203-2.27-10.633C72.644,32.996,82.391,31.752,92.138,30.505z"/><path d="M51.716,68.201c0.966,3.213,5.587,2.986,6.234-0.303c0.944-4.812,1.891-9.618,2.837-14.429   c-5.979,5.908-15.598,5.908-21.574,0c0.945,4.811,1.892,9.617,2.838,14.429c0.646,3.289,5.268,3.516,6.232,0.303   c0.574-1.901,1.145-3.804,1.717-5.707C50.572,64.397,51.144,66.3,51.716,68.201z"/></g><text x="0" y="115" fill="#000000" font-size="5px" font-weight="bold" font-family="'Helvetica Neue', Helvetica, Arial-Unicode, Arial, Sans-serif">Created by ummmpa</text><text x="0" y="120" fill="#000000" font-size="5px" font-weight="bold" font-family="'Helvetica Neue', Helvetica, Arial-Unicode, Arial, Sans-serif">from the Noun Project</text></svg>