<svg xmlns="http://www.w3.org/2000/svg" xmlns:xlink="http://www.w3.org/1999/xlink" version="1.1" x="0px" y="0px" viewBox="0 0 100 125" enable-background="new 0 0 100 100" xml:space="preserve"><g><path d="M58.723,58.451c-8.445,0-16.89,0-25.333,0c-2.035,8.229,4.191,16.181,12.667,16.181   C54.529,74.632,60.756,66.681,58.723,58.451z"/><path d="M57.752,73.684c1.086,2.5,4.096,3.509,6.469,2.172c3.695-2.086,7.391-4.169,11.088-6.253   c3.42-1.929,6.654,2.787,3.623,5.282c-4.32,3.558-8.639,7.114-12.957,10.67c-2.893,2.383-6.941,2.77-10.23,0.978   c-11.961-6.506-23.921-13.014-35.882-19.521c3.947,0,7.893,0,11.841,0c3.987,10.544,17.6,13.335,25.413,5.211   C57.328,72.71,57.539,73.196,57.752,73.684z"/><path d="M57.922,56.156c-7.912,0-15.822,0-23.733,0C38.838,45.996,53.273,45.996,57.922,56.156z"/><path d="M33.119,53.332c-2.292-12.926-4.583-25.85-6.875-38.777c-0.687-3.865-6.382-3.363-6.382,0.563c0,16.533,0,33.064,0,49.598   c3.725,0,7.448,0,11.172,0C30.135,60.401,30.749,57.045,33.119,53.332z"/><path d="M19.862,69.866c6.173,3.359,12.346,6.718,18.518,10.077c-4.574,2.578-9.148,5.157-13.723,7.736   c-2.143,1.207-4.795-0.34-4.795-2.801C19.862,79.875,19.862,74.871,19.862,69.866z"/></g><text x="0" y="115" fill="#000000" font-size="5px" font-weight="bold" font-family="'Helvetica Neue', Helvetica, Arial-Unicode, Arial, Sans-serif">Created by ummmpa</text><text x="0" y="120" fill="#000000" font-size="5px" font-weight="bold" font-family="'Helvetica Neue', Helvetica, Arial-Unicode, Arial, Sans-serif">from the Noun Project</text></svg>