<svg xmlns="http://www.w3.org/2000/svg" viewBox="0 0 533.7 104.7"><path d="M195.4 32.4h-33.5v13.4h30.8v11h-30.8v16.3H197v11.4h-48V21.2h46.4v11.2zM243.9 65c.4 2.9 1.2 5.1 2.4 6.5 2.2 2.6 6 3.9 11.3 3.9 3.2 0 5.8-.3 7.8-1 3.8-1.3 5.7-3.8 5.7-7.3 0-2.1-.9-3.7-2.8-4.9-1.8-1.1-4.8-2.1-8.8-3l-6.9-1.5c-6.7-1.5-11.4-3.1-13.9-4.9-4.3-2.9-6.4-7.5-6.4-13.7 0-5.7 2.1-10.4 6.3-14.1 4.2-3.8 10.3-5.6 18.4-5.6 6.8 0 12.5 1.8 17.3 5.3 4.8 3.5 7.3 8.7 7.5 15.4h-12.7c-.2-3.8-1.9-6.5-5.1-8.1-2.1-1.1-4.7-1.6-7.9-1.6-3.5 0-6.3.7-8.4 2.1-2.1 1.4-3.1 3.3-3.1 5.8 0 2.3 1 4 3.1 5.1 1.3.7 4.1 1.6 8.4 2.6l11.1 2.6c4.9 1.1 8.5 2.7 11 4.6 3.8 3 5.7 7.3 5.7 12.9 0 5.8-2.2 10.6-6.7 14.4-4.5 3.8-10.8 5.7-19 5.7-8.3 0-14.9-1.9-19.7-5.7-4.8-3.8-7.2-8.9-7.2-15.5h12.6zm122.4-43.8v11.2h-18.9v52.1H334V32.4h-19V21.2h51.3zm47.9 0h15l22.4 63.3h-14.4l-4.2-13h-23.3l-4.3 13h-13.8l22.6-63.3zm-.8 39.4h16.2l-8-24.9-8.2 24.9zm109-37.8c2.3 1 4.3 2.5 5.9 4.4 1.3 1.6 2.4 3.4 3.2 5.3.8 1.9 1.2 4.2 1.2 6.7 0 3-.8 6-2.3 8.9-1.5 2.9-4 5-7.5 6.2 2.9 1.2 5 2.8 6.2 5 1.2 2.2 1.8 5.5 1.8 9.9v4.3c0 2.9.1 4.9.3 5.9.3 1.6 1.2 2.8 2.4 3.6v1.6H519c-.4-1.4-.7-2.5-.9-3.4-.3-1.8-.5-3.6-.6-5.5l-.1-5.9c-.1-4-.8-6.7-2.1-8.1-1.3-1.3-3.9-2-7.5-2h-12.9v24.8H482V21.2h30.3c4.4.1 7.8.6 10.1 1.6zm-27.3 9.4v17h14.2c2.8 0 5-.3 6.4-1 2.5-1.2 3.8-3.6 3.8-7.1 0-3.8-1.2-6.4-3.6-7.7-1.4-.7-3.4-1.1-6.1-1.1h-14.7zM74.4 64.1l32.9-24.6H66.4L53.6 0 41 39.5H0l33.1 24.7-12.9 40.5 33.6-25.1 33.8 25.1z" fill="#34528a"/><path d="M44.1 45.8h18.7V49H47.6v7.8h14.2v3H47.6v8.8h15.6v3.1h-19V45.8z" fill="#fff"/></svg>